<svg width="244" height="244" viewBox="0 0 244 244" fill="none" xmlns="http://www.w3.org/2000/svg">
<path d="M8 4C5.79086 4 4 5.79086 4 8V236C4 238.209 5.79086 240 8 240H236C238.209 240 240 238.209 240 236V8C240 5.79086 238.209 4 236 4H8Z" fill="#D57555" stroke="white" stroke-width="8" stroke-linejoin="round"/>
<path d="M186 199H58V236H186V199Z" fill="#84C8E1"/>
<path d="M136 165H108V213H136V165Z" fill="#FFE3C3"/>
<path d="M132 21H109V61H132V21Z" fill="#2B6886"/>
<path d="M121 164C150.271 164 174 140.271 174 111C174 81.7289 150.271 58 121 58C91.7289 58 68 81.7289 68 111C68 140.271 91.7289 164 121 164Z" fill="#FFE3C3"/>
<path d="M155 148H87V186H155V148Z" fill="#2B6886"/>
<path d="M63.5 132C72.6127 132 80 124.613 80 115.5C80 106.387 72.6127 99 63.5 99C54.3873 99 47 106.387 47 115.5C47 124.613 54.3873 132 63.5 132Z" fill="#FFE3C3"/>
<path d="M178.5 132C187.613 132 195 124.613 195 115.5C195 106.387 187.613 99 178.5 99C169.387 99 162 106.387 162 115.5C162 124.613 169.387 132 178.5 132Z" fill="#FFE3C3"/>
<path d="M184 123H175V143H184V123Z" fill="#2B6886"/>
<path d="M132 117H110V148H132V117Z" fill="#FF656D"/>
</svg>
