<svg width="243" height="243" viewBox="0 0 243 243" fill="none" xmlns="http://www.w3.org/2000/svg">
<path d="M239 8C239 5.79086 237.209 4 235 4H8C5.79086 4 4 5.79086 4 8V235C4 237.209 5.79086 239 8 239H235C237.209 239 239 237.209 239 235V8Z" fill="#2B6885" stroke="white" stroke-width="8" stroke-linejoin="round"/>
<path d="M121.494 174.216C160.708 174.216 192.497 142.427 192.497 103.213C192.497 63.9998 160.708 32.2109 121.494 32.2109C82.2808 32.2109 50.4919 63.9998 50.4919 103.213C50.4919 142.427 82.2808 174.216 121.494 174.216Z" fill="#00A266"/>
<path d="M162.39 108.585H80.0857V190.889H162.39V108.585Z" fill="#FFE3C3"/>
<path d="M89.2206 127.413C107.045 127.413 121.494 112.963 121.494 95.1391C121.494 77.3147 107.045 62.8652 89.2206 62.8652C71.3963 62.8652 56.9468 77.3147 56.9468 95.1391C56.9468 112.963 71.3963 127.413 89.2206 127.413Z" fill="#00A266"/>
<path d="M132 144H111V170H132V144Z" fill="#CD509A"/>
<path d="M186.098 235C172.65 218.485 153.381 207.757 132.26 205.026V190.353H110.204V205.093C89.2848 207.945 70.2291 218.634 56.8909 235H186.098Z" fill="#FACB01"/>
<path d="M181.743 65.1441H156.024V60.3086H177.979L181.743 65.1441Z" fill="#CD509A"/>
<path d="M187.661 77.3945H158.615V72.5479H185.517L187.661 77.3945Z" fill="#CD509A"/>
<path d="M191.425 89.7676H152.696V84.9209H190.353L191.425 89.7676Z" fill="#CD509A"/>
</svg>
