<svg width="243" height="243" viewBox="0 0 243 243" fill="none" xmlns="http://www.w3.org/2000/svg">
<path d="M8 4C5.79086 4 4 5.79086 4 8V235C4 237.209 5.79086 239 8 239H235C237.209 239 239 237.209 239 235V8C239 5.79086 237.209 4 235 4H8Z" fill="#D57555" stroke="white" stroke-width="8" stroke-linejoin="round"/>
<path d="M134.951 159.475H107.513V207.349H134.951V159.475Z" fill="#FFE3C3"/>
<path d="M120.422 163.45C149.533 163.45 173.133 139.851 173.133 110.74C173.133 81.6289 149.533 58.0298 120.422 58.0298C91.3113 58.0298 67.7122 81.6289 67.7122 110.74C67.7122 139.851 91.3113 163.45 120.422 163.45Z" fill="#FFE3C3"/>
<path d="M154.315 36.6445H87.0764V74.8371H154.315V36.6445Z" fill="#2B6886"/>
<path d="M63.4797 131.724C72.6509 131.724 80.0857 124.289 80.0857 115.118C80.0857 105.946 72.6509 98.5117 63.4797 98.5117C54.3085 98.5117 46.8738 105.946 46.8738 115.118C46.8738 124.289 54.3085 131.724 63.4797 131.724Z" fill="#FFE3C3"/>
<path d="M178.057 131.724C187.229 131.724 194.663 124.289 194.663 115.118C194.663 105.946 187.229 98.5117 178.057 98.5117C168.886 98.5117 161.451 105.946 161.451 115.118C161.451 124.289 168.886 131.724 178.057 131.724Z" fill="#FFE3C3"/>
<path d="M182.826 122.042H174.193V142.065H182.826V122.042Z" fill="#FACB01"/>
<path d="M131.724 116.123H109.132V147.325H131.724V116.123Z" fill="#FF656D"/>
<path d="M184.981 198.416H58.03V234.989H184.981V198.416Z" fill="#00A266"/>
</svg>
