<svg width="243" height="243" viewBox="0 0 243 243" fill="none" xmlns="http://www.w3.org/2000/svg">
<path d="M239 8C239 5.79086 237.209 4 235 4H8C5.79086 4 4 5.79086 4 8V235C4 237.209 5.79086 239 8 239H235C237.209 239 239 237.209 239 235V8Z" fill="#D57555" stroke="white" stroke-width="8" stroke-linejoin="round"/>
<path d="M121.495 174.212C160.71 174.212 192.5 142.422 192.5 103.206C192.5 63.9913 160.71 32.2012 121.495 32.2012C82.2794 32.2012 50.4893 63.9913 50.4893 103.206C50.4893 142.422 82.2794 174.212 121.495 174.212Z" fill="#2B6885"/>
<path d="M162.374 108.583H80.0786V190.878H162.374V108.583Z" fill="#E3A590"/>
<path d="M132.259 140.33H110.741V169.919H132.259V140.33Z" fill="#FF656D"/>
<path d="M181.746 65.144H156.024V60.3037H177.979L181.746 65.144Z" fill="#3785AE"/>
<path d="M187.66 77.3954H158.618V72.5439H185.513L187.66 77.3954Z" fill="#3785AE"/>
<path d="M191.427 89.7582H152.693V84.918H190.353L191.427 89.7582Z" fill="#3785AE"/>
<path d="M186.05 234.866C172.594 218.364 153.33 207.64 132.214 204.897V190.22H110.159V204.975C89.2478 207.826 70.1983 218.51 56.8608 234.866H186.05Z" fill="#00A266"/>
<path d="M148.991 154.882C161.217 154.882 171.128 145.058 171.128 132.941C171.128 120.823 161.217 111 148.991 111C136.766 111 126.855 120.823 126.855 132.941C126.855 145.058 136.766 154.882 148.991 154.882Z" stroke="#00A266" stroke-width="3" stroke-miterlimit="10"/>
<path d="M92.7184 154.882C104.944 154.882 114.855 145.058 114.855 132.941C114.855 120.823 104.944 111 92.7184 111C80.4928 111 70.582 120.823 70.582 132.941C70.582 145.058 80.4928 154.882 92.7184 154.882Z" stroke="#00A266" stroke-width="3" stroke-miterlimit="10"/>
<circle cx="109.5" cy="133.5" r="2.5" fill="#2B6885"/>
<circle cx="133.5" cy="133.5" r="2.5" fill="#2B6885"/>
</svg>
