<svg width="243" height="243" viewBox="0 0 243 243" fill="none" xmlns="http://www.w3.org/2000/svg">
<path d="M8 4C5.79086 4 4 5.79086 4 8V235C4 237.209 5.79086 239 8 239H235C237.209 239 239 237.209 239 235V8C239 5.79086 237.209 4 235 4H8Z" fill="#FACB01" stroke="white" stroke-width="8" stroke-linejoin="round"/>
<path d="M121.455 176.238C160.67 176.238 192.46 144.448 192.46 105.233C192.46 66.0184 160.67 34.2285 121.455 34.2285C82.2405 34.2285 50.4507 66.0184 50.4507 105.233C50.4507 144.448 82.2405 176.238 121.455 176.238Z" fill="#2B6885"/>
<path d="M162.374 108.587H80.0779V190.883H162.374V108.587Z" fill="#FFE3C3"/>
<path d="M127.951 145.705H115.541V164.409H127.951V145.705Z" fill="#FF656D"/>
<path d="M130.601 183.191H112.847V214.932H130.601V183.191Z" fill="#FFE3C3"/>
<path d="M184.936 202.019H57.9861V233.759H184.936V202.019Z" fill="#D5572F"/>
<path d="M138.673 199.872H104.786V233.759H138.673V199.872Z" fill="#FFE3C3"/>
<path d="M141.613 192.717V169.932H102.002V192.717H141.613Z" fill="#2B6886"/>
</svg>
