<svg width="243" height="243" viewBox="0 0 243 243" fill="none" xmlns="http://www.w3.org/2000/svg">
<path d="M239 8C239 5.79086 237.209 4 235 4H8C5.79086 4 4 5.79086 4 8V235C4 237.209 5.79086 239 8 239H235C237.209 239 239 237.209 239 235V8Z" fill="#D57555" stroke="white" stroke-width="8" stroke-linejoin="round"/>
<path d="M121.494 174.216C160.708 174.216 192.497 142.427 192.497 103.213C192.497 63.9998 160.708 32.2109 121.494 32.2109C82.2808 32.2109 50.4919 63.9998 50.4919 103.213C50.4919 142.427 82.2808 174.216 121.494 174.216Z" fill="#81C9E2"/>
<path d="M162.39 108.585H80.0857V190.889H162.39V108.585Z" fill="#FFE3C3"/>
<path d="M125.481 140.322H118.792V169.905H125.481V140.322Z" fill="#FF656D"/>
<path d="M186.098 235C172.642 218.495 153.377 207.77 132.26 205.027V190.353H110.204V205.105C89.2909 207.957 70.2402 218.642 56.9021 235H186.098Z" fill="#FACB01"/>
<path d="M90.3373 127.837C103.789 127.837 114.693 116.933 114.693 103.481C114.693 90.0296 103.789 79.125 90.3373 79.125C76.8858 79.125 65.9812 90.0296 65.9812 103.481C65.9812 116.933 76.8858 127.837 90.3373 127.837Z" fill="#81C9E2"/>
<path d="M124.443 190.007H118.792V205.619H124.443V190.007Z" fill="#FACB01"/>
</svg>
