<svg width="243" height="243" viewBox="0 0 243 243" fill="none" xmlns="http://www.w3.org/2000/svg">
<path d="M8 4C5.79086 4 4 5.79086 4 8V235C4 237.209 5.79086 239 8 239H235C237.209 239 239 237.209 239 235V8C239 5.79086 237.209 4 235 4H8Z" fill="#099F64" stroke="white" stroke-width="8" stroke-linejoin="round"/>
<path d="M121.495 174.212C160.71 174.212 192.5 142.422 192.5 103.206C192.5 63.9913 160.71 32.2012 121.495 32.2012C82.2794 32.2012 50.4893 63.9913 50.4893 103.206C50.4893 142.422 82.2794 174.212 121.495 174.212Z" fill="#FACB01"/>
<path d="M162.374 108.583H80.0786V190.878H162.374V108.583Z" fill="#FFE3C3"/>
<path d="M132.259 140.33H110.741V169.919H132.259V140.33Z" fill="#FF656D"/>
<path d="M181.746 65.144H156.024V60.3037H177.979L181.746 65.144Z" fill="#3785AE"/>
<path d="M187.66 77.3954H158.618V72.5439H185.513L187.66 77.3954Z" fill="#3785AE"/>
<path d="M191.427 89.7587H152.693V84.9185H190.353L191.427 89.7587Z" fill="#3785AE"/>
<path d="M186.05 234.866C172.594 218.364 153.33 207.64 132.214 204.897V190.22H110.159V204.975C89.2478 207.826 70.1983 218.51 56.8608 234.866H186.05Z" fill="#006889"/>
</svg>
