<svg width="243" height="243" viewBox="0 0 243 243" fill="none" xmlns="http://www.w3.org/2000/svg">
<path d="M8 4C5.79086 4 4 5.79086 4 8V235C4 237.209 5.79086 239 8 239H235C237.209 239 239 237.209 239 235V8C239 5.79086 237.209 4 235 4H8Z" fill="#FACB01" stroke="white" stroke-width="8" stroke-linejoin="round"/>
<path d="M187.706 235C174.251 218.491 154.983 207.763 133.863 205.021V190.355H111.809V205.099C90.8967 207.954 71.8484 218.641 58.5127 235H187.706Z" fill="#2B6885"/>
<path d="M123.11 176.361C162.323 176.361 194.111 144.572 194.111 105.359C194.111 66.146 162.323 34.3574 123.11 34.3574C83.8965 34.3574 52.1079 66.146 52.1079 105.359C52.1079 144.572 83.8965 176.361 123.11 176.361Z" fill="#CD509A"/>
<path d="M124.194 193.039C153.307 193.039 176.909 169.438 176.909 140.324C176.909 111.211 153.307 87.6094 124.194 87.6094C95.0802 87.6094 71.479 111.211 71.479 140.324C71.479 169.438 95.0802 193.039 124.194 193.039Z" fill="#FFE3C3"/>
<path d="M122.573 115.576C140.396 115.576 154.844 101.128 154.844 83.3056C154.844 65.4831 140.396 51.0352 122.573 51.0352C104.751 51.0352 90.3027 65.4831 90.3027 83.3056C90.3027 101.128 104.751 115.576 122.573 115.576Z" fill="#CD509A"/>
<path d="M162.377 88.1454V60.7148H157.537V88.1454H162.377Z" fill="#FACB01"/>
<path d="M66.6724 155.872C75.8398 155.872 83.2715 148.44 83.2715 139.273C83.2715 130.106 75.8398 122.674 66.6724 122.674C57.5049 122.674 50.0732 130.106 50.0732 139.273C50.0732 148.44 57.5049 155.872 66.6724 155.872Z" fill="#FFE3C3"/>
<path d="M181.246 155.872C190.413 155.872 197.845 148.44 197.845 139.273C197.845 130.106 190.413 122.674 181.246 122.674C172.078 122.674 164.646 130.106 164.646 139.273C164.646 148.44 172.078 155.872 181.246 155.872Z" fill="#FFE3C3"/>
<path d="M142.749 141.933C143.786 141.933 144.627 141.093 144.627 140.056C144.627 139.018 143.786 138.178 142.749 138.178C141.712 138.178 140.871 139.018 140.871 140.056C140.871 141.093 141.712 141.933 142.749 141.933Z" fill="#34ADCE"/>
<path d="M105.627 141.933C106.665 141.933 107.505 141.093 107.505 140.056C107.505 139.018 106.665 138.178 105.627 138.178C104.59 138.178 103.75 139.018 103.75 140.056C103.75 141.093 104.59 141.933 105.627 141.933Z" fill="#34ADCE"/>
</svg>
