<svg width="243" height="243" viewBox="0 0 243 243" fill="none" xmlns="http://www.w3.org/2000/svg">
<path d="M239 8C239 5.79086 237.209 4 235 4H8C5.79086 4 4 5.79086 4 8V235C4 237.209 5.79086 239 8 239H235C237.209 239 239 237.209 239 235V8Z" fill="#81C9E2" stroke="white" stroke-width="8" stroke-linejoin="round"/>
<path d="M185.517 42.4297H58.03V158.615H185.517V42.4297Z" fill="#00A266"/>
<path d="M161.306 72.5478C165.463 72.5478 168.833 69.1779 168.833 65.021C168.833 60.864 165.463 57.4941 161.306 57.4941C157.149 57.4941 153.779 60.864 153.779 65.021C153.779 69.1779 157.149 72.5478 161.306 72.5478Z" fill="#FACB01"/>
<path d="M121.494 177.979C150.605 177.979 174.205 154.38 174.205 125.269C174.205 96.1577 150.605 72.5586 121.494 72.5586C92.3833 72.5586 68.7842 96.1577 68.7842 125.269C68.7842 154.38 92.3833 177.979 121.494 177.979Z" fill="#EA9587"/>
<path d="M134.951 169.916H107.513V208.645H134.951V169.916Z" fill="#EA9587"/>
<path d="M184.981 203.263H58.03V235H184.981V203.263Z" fill="#2B6885"/>
<path d="M138.715 201.106H104.822V235H138.715V201.106Z" fill="#FACB01"/>
<path d="M145.471 48.0127H96.4683V97.0153H145.471V48.0127Z" fill="#00A266"/>
<path d="M140.055 131.724C141.097 131.724 141.942 130.879 141.942 129.837C141.942 128.794 141.097 127.949 140.055 127.949C139.012 127.949 138.167 128.794 138.167 129.837C138.167 130.879 139.012 131.724 140.055 131.724Z" fill="#34ADCE"/>
<path d="M102.945 131.724C103.988 131.724 104.833 130.879 104.833 129.837C104.833 128.794 103.988 127.949 102.945 127.949C101.903 127.949 101.058 128.794 101.058 129.837C101.058 130.879 101.903 131.724 102.945 131.724Z" fill="#34ADCE"/>
</svg>
