<svg width="111" height="105" viewBox="0 0 111 105" fill="none" xmlns="http://www.w3.org/2000/svg">
<path d="M111 11.0117H10.9939V104.846H111V11.0117Z" fill="#B2D5DC"/>
<path d="M10.9939 0V93.9809H0.0019539V11.017C0.00141294 9.57043 0.285337 8.13791 0.83749 6.80129C1.38964 5.46467 2.19928 4.25013 3.22002 3.22705C4.24077 2.20397 5.45262 1.3924 6.78648 0.838693C8.12035 0.284986 9.5501 -1.01535e-07 10.9939 0Z" fill="#4F7C89"/>
<path d="M10.994 104.999C17.0657 104.999 21.9879 100.067 21.9879 93.9837C21.9879 87.9003 17.0657 82.9688 10.994 82.9688C4.92216 82.9688 0 87.9003 0 93.9837C0 100.067 4.92216 104.999 10.994 104.999Z" fill="#B2D5DC"/>
<path d="M17.7521 0H10.9939V82.9701H17.7521V0Z" fill="#4F7C89"/>
<path d="M31.7321 91.3281L96.7485 91.3281V84.1155L31.7321 84.1155V91.3281Z" fill="#4F7C89"/>
<path d="M83.0386 48.0161V79.2227H90.2375V48.0161H83.0386Z" fill="#4F7C89"/>
<path d="M53.0403 48.0161V79.2227H60.2392V48.0161H53.0403Z" fill="#4F7C89"/>
<path d="M68.0393 48.0199V79.2266H75.2382V48.0199H68.0393Z" fill="#4F7C89"/>
<path d="M96.7484 84.1172H31.7319V91.3298H96.7484V84.1172Z" fill="#4F7C89"/>
<path d="M38.2451 48.0161V79.2227H45.444V48.0161H38.2451Z" fill="#4F7C89"/>
<path d="M63.6987 24.668L31.1904 43.1246H96.2069L63.6987 24.668Z" fill="#4F7C89"/>
</svg>
