<svg id="Layer_1" data-name="Layer 1" xmlns="http://www.w3.org/2000/svg" viewBox="0 0 512 512"><rect width="512" height="512" style="fill:none"/><path d="M345.58,373,211.35,201.85,189,176.57,349.47,334.46c2.27-18,8.72-86.77-36.31-150.44a204.76,204.76,0,0,0-42.09-43.79l-36.3,8.94-8.92-36.23-111-58.61a692.67,692.67,0,0,0,20.67,129c2.8,10.82,5.32,20.51,7.78,29.36L175.58,219l-22,25.78a161.24,161.24,0,0,0,18.9,35.84c11.7,16.67,46.92,60.37,128.39,79.76l38.9,25.29,57.45,72Z" style="fill:#fecc00"/></svg>