<svg id="Layer_1" data-name="Layer 1" xmlns="http://www.w3.org/2000/svg" viewBox="0 0 512 512"><rect width="512" height="512" style="fill:none"/><rect x="92.33" y="131.43" width="327.33" height="327.33" style="fill:#b2d5dc"/><path d="M371.59,322.16a139.63,139.63,0,1,0-279.26,0Z" style="fill:#3e62dd"/><polygon points="181.06 160.94 157.15 205.72 204.98 205.72 181.06 160.94" style="fill:#ed313b"/><rect x="92.61" y="270.26" width="176.9" height="47.83" transform="translate(475.23 113.11) rotate(90)" style="fill:#fecc00"/><polygon points="255.86 160.94 231.95 205.72 279.78 205.72 255.86 160.94" style="fill:#ed313b"/><rect x="167.41" y="270.26" width="176.9" height="47.83" transform="translate(550.03 38.31) rotate(90)" style="fill:#fecc00"/><rect x="92.33" y="321.19" width="327.33" height="137.57" style="fill:#4f7c89"/><rect x="309.86" y="53.23" width="69.75" height="267.96" style="fill:#ff5a02"/><rect x="355.11" y="362.03" width="31.23" height="97.4" transform="translate(781.45 40) rotate(90)" style="fill:#ed313b"/></svg>