<svg width="97" height="121" viewBox="0 0 97 121" fill="none" xmlns="http://www.w3.org/2000/svg">
<path d="M97 23.9336H0V120.934H97V23.9336Z" fill="#B2D5DC"/>
<path d="M82.7545 80.4502C82.6291 69.5588 78.2144 59.1561 70.4683 51.4987C62.7222 43.8413 52.2693 39.5469 41.3773 39.5469C30.4852 39.5469 20.0323 43.8413 12.2862 51.4987C4.5401 59.1561 0.125476 69.5588 0 80.4502H82.7545Z" fill="#3E62DD"/>
<path d="M26.2944 32.6758L19.2046 45.9437H33.3787L26.2944 32.6758Z" fill="#ED313B"/>
<path d="M33.3787 98.3636V45.9453H19.2045L19.2045 98.3636H33.3787Z" fill="#FECC00"/>
<path d="M48.4589 32.6758L41.3691 45.9437H55.5432L48.4589 32.6758Z" fill="#ED313B"/>
<path d="M55.543 98.3636V45.9453H41.3688V98.3636H55.543Z" fill="#FECC00"/>
<path d="M97 80.1641H0V120.929H97V80.1641Z" fill="#4F7C89"/>
<path d="M85.127 0.759766H64.4617V80.1643H85.127V0.759766Z" fill="#FF5A02"/>
<path d="M96.9287 111.326V102.072H68.0644V111.326H96.9287Z" fill="#ED313B"/>
</svg>
