<svg width="97" height="139" viewBox="0 0 97 139" fill="none" xmlns="http://www.w3.org/2000/svg">
<path d="M79.1874 109.392L33.1326 50.6506L25.4499 41.9712L80.5232 96.1517C81.2984 89.9224 83.5132 66.3897 68.0647 44.5321C64.0257 38.8312 59.1569 33.7665 53.6198 29.5058L41.1614 32.572L38.1021 20.1135L0 0C0.962794 14.9562 3.33818 29.7879 7.0944 44.2968C8.05647 48.0135 8.92166 51.3358 9.76606 54.3743L20.8403 56.5338L13.296 65.4139C14.9332 69.7694 17.1121 73.9017 19.7813 77.7131C23.7957 83.4302 35.8804 98.4219 63.8358 105.08L77.1871 113.753L96.8992 138.455L79.1874 109.392Z" fill="#FECC00"/>
</svg>
