<svg width="256" height="256" viewBox="0 0 256 256" fill="none" xmlns="http://www.w3.org/2000/svg">
<path d="M134.462 250.976H121.569C121.444 250.912 121.309 250.87 121.17 250.85C119.557 250.801 117.951 250.641 116.337 250.501C110.619 250.004 104.948 249.07 99.3723 247.706C73.3905 241.325 51.6902 227.973 34.2713 207.65C25.8842 197.858 19.1235 186.783 14.2472 174.847C8.68925 161.392 5.61305 147.043 5.16757 132.492C5.19546 132.214 5.14712 131.934 5.02783 131.681V124.457C5.15508 124.175 5.20108 123.862 5.16058 123.556C5.16058 120.984 5.42596 118.434 5.66343 115.87C6.15443 110.526 7.025 105.223 8.26858 100.003C13.1933 78.8461 23.6634 59.3839 38.6016 43.6182C45.7154 36.0373 53.7765 29.4056 62.5858 23.8872C79.4201 13.2463 98.6044 6.89397 118.461 5.38579C123.3 4.99097 128.159 4.90696 133.009 5.13426C138.381 5.37509 143.734 5.94207 149.038 6.83208C160.266 8.73247 171.167 12.2238 181.41 17.2007C198.291 25.3025 213.078 37.1874 224.622 51.9326C238.34 69.2025 247.082 89.8922 249.906 111.769C250.775 118.251 251.121 124.794 250.939 131.332C250.776 137.224 250.204 143.098 249.228 148.911C247.485 159.208 244.409 169.235 240.079 178.738C232.586 195.31 221.504 210.009 207.637 221.771C197.306 230.6 185.571 237.638 172.917 242.592C161.621 247.047 149.719 249.777 137.612 250.69C136.554 250.659 135.496 250.755 134.462 250.976ZM128.211 218.962C133.1 218.78 138.687 218.696 144.191 217.453C146.677 216.887 149.22 216.614 151.657 215.79C153.808 215.091 156.029 214.588 158.18 213.834C160.513 213.009 162.804 212.087 165.074 211.123C166.918 210.333 168.727 209.446 170.508 208.503C172.149 207.636 173.79 206.742 175.397 205.778C176.591 205.079 177.785 204.296 178.959 203.521C181.012 202.165 183.003 200.726 184.93 199.21C186.537 197.966 188.06 196.59 189.589 195.241C192.863 192.302 195.92 189.131 198.738 185.753C200.003 184.265 201.113 182.644 202.322 181.107C204.037 178.775 205.624 176.351 207.078 173.847C208.217 172.02 209.255 170.13 210.186 168.188C211.457 165.484 212.609 162.724 213.741 159.957C214.404 158.315 214.831 156.583 215.438 154.913C216.137 152.936 216.5 150.839 217.072 148.806C217.819 145.923 218.342 142.987 218.637 140.024C219.705 132.194 219.629 124.251 218.413 116.443C217.869 113.264 217.568 110.057 216.584 106.955C216.004 105.166 215.752 103.293 215.033 101.526C214.314 99.7581 213.929 97.9904 213.203 96.2647C212.1 93.6446 211.017 91.0175 209.711 88.4882C208.691 86.5249 207.616 84.6035 206.484 82.703C205.597 81.2009 204.682 79.7196 203.69 78.2803C202.112 75.9607 200.401 73.7249 198.613 71.5519C197.754 70.5039 196.825 69.5187 195.931 68.5126C194.368 66.7582 192.718 65.0839 190.986 63.496C189.848 62.441 188.646 61.4488 187.494 60.4008C186.02 59.0593 184.456 57.8366 182.877 56.6628C180.782 55.1257 178.652 53.6444 176.424 52.296C174.07 50.8567 171.674 49.5012 169.223 48.2296C166.556 46.8725 163.816 45.6643 161.016 44.6104C157.65 43.3178 154.192 42.2767 150.728 41.2986C148.27 40.5999 145.72 40.2785 143.22 39.7335C140.374 39.1722 137.487 38.8404 134.587 38.7414C126.639 38.3221 118.712 38.364 110.841 40.02C108.187 40.5859 105.477 40.8933 102.885 41.8086C101.139 42.4235 99.2956 42.7099 97.5704 43.4366C95.8453 44.1632 94.183 44.6243 92.5068 45.2951C89.6292 46.4549 86.8425 47.7964 84.1256 49.2217C83.6622 49.4218 83.2139 49.6553 82.7845 49.9204C81.5063 50.8427 80.0815 51.5274 78.7475 52.3449C76.5195 53.7003 74.4033 55.2095 72.2801 56.7047C70.7793 57.7328 69.3489 58.8602 67.9987 60.0794C67.1902 60.7028 66.4183 61.3724 65.6868 62.0846C64.9185 62.958 63.9896 63.6567 63.1725 64.4672C62.3553 65.2777 61.4264 66.2279 60.5463 67.1013C59.6663 67.9746 58.9679 69.0296 58.06 69.896C57.3019 70.6531 56.6015 71.4658 55.9647 72.3275C54.3513 74.3607 52.7798 76.4358 51.3201 78.6157C50.5169 79.8035 49.7067 80.9912 48.9803 82.207C47.2622 85.0786 45.6139 87.9991 44.1891 91.0175C42.8411 93.8681 41.7934 96.8516 40.634 99.7861C39.9775 101.463 39.6353 103.28 39.0416 104.949C38.3218 107.32 37.7618 109.736 37.3654 112.181C36.4702 116.786 36.0026 121.464 35.9685 126.155C35.8567 133.051 36.164 139.905 37.6656 146.682C38.4961 150.873 39.664 154.99 41.1578 158.993C41.6607 160.272 42.0867 161.585 42.6245 162.864C43.8049 165.659 45.09 168.454 46.5288 171.109C47.7231 173.33 49.0292 175.468 50.3772 177.592C51.7741 179.856 53.4223 181.987 55.0497 184.118C55.8738 185.194 56.7469 186.214 57.6339 187.248C58.5209 188.282 59.394 189.156 60.2531 190.113C61.5661 191.566 62.9839 192.908 64.3807 194.305C65.8963 195.779 67.6005 197.058 69.2 198.455C70.9181 199.972 72.7969 201.25 74.6478 202.648C76.3217 203.867 78.061 204.993 79.8581 206.022C81.2968 206.84 82.7077 207.713 84.2093 208.426C86.0811 209.306 87.897 210.298 89.7548 211.22C90.998 211.821 92.325 212.22 93.5892 212.806C95.1607 213.547 96.8788 213.952 98.4782 214.588C100.336 215.287 102.327 215.636 104.233 216.251C106.856 216.981 109.522 217.541 112.217 217.928C117.508 218.738 122.859 219.084 128.211 218.962Z" fill="#80C8E1"/>
<path d="M128.211 218.96C122.864 219.022 117.521 218.618 112.245 217.751C109.55 217.364 106.884 216.804 104.261 216.074C102.355 215.459 100.364 215.138 98.5063 214.411C96.879 213.775 95.1608 213.37 93.6173 212.629C92.3531 212.042 91.0261 211.644 89.7829 211.043C87.925 210.149 86.1092 209.157 84.2374 208.249C82.7357 207.55 81.3249 206.663 79.8861 205.845C78.0707 204.827 76.3126 203.71 74.6199 202.498C72.769 201.164 70.8902 199.85 69.1721 198.306C67.5727 196.909 65.8686 195.63 64.3529 194.156C62.9561 192.793 61.5592 191.445 60.2252 189.964C59.3661 189.007 58.4512 188.056 57.6061 187.099C56.7609 186.142 55.8459 185.045 55.0218 183.969C53.3944 181.873 51.7811 179.707 50.3493 177.443C49.0013 175.347 47.6953 173.181 46.5009 170.959C45.0622 168.269 43.7771 165.531 42.5967 162.715C42.0589 161.436 41.6329 160.123 41.13 158.844C39.6362 154.841 38.4683 150.724 37.6378 146.533C36.1362 139.756 35.8289 132.902 35.9406 126.006C35.9747 121.314 36.4423 116.637 37.3375 112.032C37.7339 109.586 38.294 107.171 39.0137 104.8C39.6074 103.095 39.9497 101.307 40.6062 99.6369C41.7656 96.7024 42.8132 93.719 44.1612 90.8683C45.5581 87.85 47.2343 84.9294 48.9524 82.0578C49.6509 80.8421 50.489 79.6543 51.2922 78.4665C52.7519 76.3076 54.3234 74.2325 55.9368 72.1783C56.5736 71.3167 57.274 70.5039 58.0321 69.7469C58.9401 68.9084 59.6385 67.8464 60.5186 66.9521C61.3986 66.0578 62.2646 65.1914 63.1446 64.318C64.0246 63.4446 64.8907 62.8088 65.659 61.9355C66.3905 61.2232 67.1623 60.5537 67.9708 59.9302C69.3211 58.711 70.7514 57.5836 72.2522 56.5556C74.3475 55.0604 76.4918 53.5512 78.7198 52.1957C80.0538 51.3782 81.5134 50.6935 82.7566 49.7713C83.1861 49.5062 83.6344 49.2726 84.0977 49.0726C86.8495 47.6752 89.6363 46.2778 92.4789 45.1459C94.1551 44.4472 95.8873 43.9861 97.5426 43.2874C99.1978 42.5887 101.111 42.2743 102.858 41.6594C105.449 40.7442 108.159 40.4367 110.813 39.8708C118.656 38.2149 126.583 38.173 134.56 38.5922C137.459 38.6912 140.346 39.023 143.192 39.5843C145.692 40.1293 148.242 40.4507 150.7 41.1494C154.192 42.1276 157.622 43.1686 160.988 44.4612C163.788 45.5151 166.528 46.7234 169.195 48.0804C171.646 49.3381 174.042 50.7075 176.396 52.1468C178.624 53.4953 180.768 54.9765 182.849 56.5136C184.428 57.6874 185.992 58.9101 187.466 60.2516C188.604 61.2997 189.806 62.2918 190.958 63.3468C192.69 64.9347 194.34 66.6091 195.903 68.3634C196.797 69.3696 197.726 70.3547 198.585 71.4028C200.373 73.5757 202.077 75.8115 203.663 78.1312C204.64 79.5705 205.555 81.0517 206.456 82.5539C207.588 84.4543 208.663 86.3757 209.683 88.339C211.01 90.8683 212.093 93.4954 213.175 96.1155C213.874 97.8413 214.307 99.6579 215.005 101.377C215.704 103.095 215.976 105.017 216.556 106.805C217.54 109.908 217.841 113.094 218.386 116.294C219.602 124.102 219.677 132.045 218.609 139.875C218.34 142.886 217.836 145.871 217.1 148.804C216.528 150.837 216.178 152.933 215.466 154.91C214.858 156.58 214.432 158.313 213.769 159.955C212.637 162.75 211.485 165.482 210.214 168.186C209.283 170.128 208.245 172.017 207.106 173.845C205.643 176.349 204.046 178.773 202.322 181.104C201.113 182.641 200.003 184.262 198.739 185.751C195.92 189.129 192.863 192.3 189.589 195.239C188.06 196.587 186.537 197.964 184.931 199.207C183.003 200.717 181.012 202.163 178.959 203.518C177.786 204.294 176.591 205.049 175.397 205.775C173.819 206.739 172.177 207.634 170.508 208.5C168.727 209.443 166.918 210.331 165.074 211.12C162.804 212.084 160.513 213.007 158.18 213.831C156.029 214.586 153.808 215.068 151.657 215.787C149.22 216.612 146.677 216.884 144.191 217.45C138.687 218.694 133.086 218.778 128.211 218.96ZM133.693 154.317C141.956 154.317 150.218 154.386 158.474 154.282C161.268 154.282 164.061 154.519 166.855 153.834C168.02 153.545 169.127 153.061 170.131 152.402C171.777 151.369 173.125 149.924 174.042 148.21C174.775 147.077 175.156 145.752 175.138 144.402C175.069 143.177 174.81 141.97 174.37 140.825C173.434 138.561 172.694 136.22 171.674 133.985C170.934 132.371 170.277 130.722 169.53 129.094C168.783 127.466 167.931 125.733 167.225 124.014C166.52 122.295 165.675 120.626 164.99 118.893C164.306 117.16 163.461 115.497 162.686 113.806L160.36 108.741C159.661 107.169 158.907 105.611 158.201 104.039C157.266 101.943 156.372 99.8465 155.408 97.7923C154.444 95.7382 153.543 93.712 152.614 91.6718C151.785 89.8552 150.947 88.0456 150.1 86.243C148.989 83.8604 147.865 81.4919 146.768 79.1023C145.846 77.1181 145.036 75.0709 144.044 73.1215C142.892 70.8508 141.872 68.5102 140.824 66.1975C139.902 64.0776 138.666 62.1085 137.158 60.3564C135.656 58.6516 134.182 56.863 131.794 56.2761C129.9 55.7879 127.923 55.7093 125.997 56.0455C124.774 56.29 123.51 56.3529 122.386 56.9957C118.195 59.3713 115.695 63.0953 113.767 67.3364C113.069 68.9084 112.307 70.4665 111.553 72.0176C110.456 74.2814 109.332 76.5242 108.242 78.7879C107.327 80.6954 106.489 82.6377 105.526 84.5172C104.352 86.8019 103.305 89.1425 102.194 91.4622C101.3 93.3347 100.413 95.2142 99.512 97.0517C98.3992 99.3807 97.2818 101.71 96.1597 104.039C95.3914 105.604 94.6091 107.169 93.8408 108.734C93.0725 110.299 92.395 111.745 91.6896 113.261C90.7746 115.225 89.9436 117.23 88.9588 119.151C87.6108 121.75 86.4654 124.433 85.1663 127.054C84.1117 129.15 83.1198 131.302 82.0861 133.426C81.0035 135.661 79.8861 137.883 78.8175 140.126C77.7489 142.369 76.7221 144.772 75.5976 147.064C73.8585 150.599 72.1894 154.163 70.5481 157.747C69.2769 160.542 68.1175 163.337 67.0559 166.187C65.9943 169.038 64.4996 171.658 64.5206 174.781C64.5206 175.662 64.2412 176.486 64.5206 177.45C65.1266 179.542 66.1907 181.473 67.6356 183.103C68.8944 184.516 70.4326 185.652 72.153 186.44C73.8733 187.227 75.7384 187.649 77.6302 187.679C78.9587 187.7 80.2831 187.528 81.5623 187.169C83.029 186.891 84.3708 186.158 85.3967 185.073C86.3719 183.999 87.2117 182.809 87.8971 181.531C89.6013 178.135 91.3403 174.746 93.0445 171.344C94.2947 168.842 95.517 166.327 96.7462 163.812C97.5285 162.212 98.3178 160.619 99.0791 159.012C99.6448 157.824 100.211 156.636 100.699 155.413C100.783 155.07 100.987 154.768 101.274 154.562C101.561 154.355 101.912 154.258 102.264 154.289C112.754 154.321 123.231 154.33 133.693 154.317ZM177.862 188.273C185.454 188.524 191.733 181.985 191.733 174.725C191.706 171.108 190.261 167.646 187.709 165.083C185.157 162.52 181.702 161.06 178.086 161.018C174.471 160.976 170.982 162.355 168.372 164.858C165.761 167.361 164.236 170.788 164.124 174.404C163.957 181.95 170.515 188.601 177.862 188.273Z" fill="#006784"/>
<path d="M133.693 154.318C123.226 154.318 112.75 154.318 102.264 154.318C101.912 154.288 101.561 154.385 101.274 154.591C100.987 154.797 100.783 155.099 100.699 155.443C100.21 156.665 99.6447 157.853 99.079 159.041C98.3177 160.648 97.5284 162.241 96.7461 163.841C95.5169 166.356 94.2946 168.872 93.0444 171.373C91.3402 174.776 89.6012 178.164 87.897 181.56C87.2116 182.839 86.3718 184.028 85.3966 185.102C84.3707 186.187 83.0289 186.92 81.5622 187.198C80.283 187.557 78.9586 187.729 77.6301 187.708C75.7352 187.673 73.8682 187.245 72.1477 186.45C70.4271 185.655 68.8906 184.511 67.6355 183.09C66.1906 181.46 65.1265 179.53 64.5205 177.438C64.2201 176.473 64.5205 175.649 64.5205 174.769C64.5205 171.645 66.0012 168.969 67.0558 166.175C68.1104 163.38 69.2908 160.508 70.548 157.734C72.1893 154.15 73.8584 150.587 75.5975 147.051C76.715 144.76 77.7278 142.412 78.8174 140.113C79.907 137.815 81.0034 135.649 82.086 133.413C83.1197 131.317 84.1116 129.151 85.1662 127.041C86.4653 124.421 87.6107 121.738 88.9587 119.139C89.9435 117.217 90.7745 115.212 91.6895 113.249C92.3879 111.733 93.0864 110.23 93.8407 108.721C94.595 107.212 95.3913 105.591 96.1596 104.026C97.2817 101.697 98.3991 99.368 99.5119 97.0391C100.413 95.1666 101.3 93.2871 102.194 91.4495C103.304 89.1299 104.352 86.7893 105.526 84.5045C106.489 82.625 107.327 80.6827 108.242 78.7753C109.332 76.5115 110.456 74.2687 111.553 72.0049C112.307 70.4538 113.055 68.8957 113.767 67.3237C115.695 63.0826 118.23 59.3586 122.386 56.983C123.51 56.3403 124.774 56.2844 125.997 56.0328C127.923 55.6967 129.9 55.7752 131.794 56.2634C134.182 56.8154 135.656 58.639 137.158 60.3438C138.666 62.0959 139.902 64.0649 140.824 66.1848C141.872 68.4975 142.92 70.8381 144.044 73.1089C145.036 75.0582 145.846 77.1054 146.768 79.0897C147.865 81.4792 148.989 83.8478 150.1 86.2303C150.947 88.0329 151.785 89.8425 152.614 91.6591C153.55 93.6993 154.5 95.7325 155.408 97.7797C156.316 99.8268 157.238 101.972 158.201 104.026C158.9 105.598 159.598 107.156 160.36 108.728L162.685 113.794C163.461 115.485 164.313 117.147 164.99 118.88C165.668 120.613 166.513 122.276 167.225 124.002C167.938 125.727 168.769 127.383 169.53 129.081C170.291 130.779 170.927 132.358 171.674 133.972C172.694 136.208 173.434 138.548 174.37 140.812C174.809 141.958 175.069 143.164 175.138 144.389C175.156 145.739 174.775 147.064 174.042 148.197C173.125 149.911 171.777 151.356 170.131 152.389C169.127 153.048 168.02 153.532 166.855 153.822C164.061 154.52 161.268 154.234 158.474 154.269C150.218 154.374 141.956 154.304 133.693 154.304V154.318ZM127.875 97.5212C127.576 97.824 127.339 98.1824 127.177 98.5762C126.653 99.8688 126.011 101.112 125.452 102.398C124.432 104.753 123.252 107.044 122.204 109.385C121.156 111.726 119.983 114.024 118.977 116.372C117.972 118.719 116.68 120.962 115.66 123.359C114.403 126.27 113.066 129.149 111.651 131.995C111.218 132.868 111.651 132.693 112.161 132.693L139.616 132.637C141.229 132.637 141.25 132.637 140.754 131.156C140.259 129.675 139.581 128.201 139.071 126.692C138.561 125.182 137.856 123.589 137.255 122.031C136.655 120.473 136.117 118.943 135.523 117.406C134.594 115.009 133.63 112.62 132.729 110.216C132.164 108.728 131.584 107.247 131.039 105.752C130.418 104.054 129.768 102.37 129.119 100.686C128.786 99.6009 128.37 98.5428 127.875 97.5212Z" fill="#80C8E1"/>
<path d="M177.863 188.273C170.515 188.602 163.957 181.985 164.124 174.404C164.236 170.788 165.761 167.361 168.372 164.858C170.983 162.355 174.471 160.976 178.086 161.019C181.702 161.061 185.157 162.52 187.709 165.083C190.261 167.646 191.706 171.108 191.733 174.726C191.733 182.013 185.455 188.525 177.863 188.273Z" fill="#80C8E1"/>
<path d="M127.876 97.5176C128.364 98.5443 128.773 99.6071 129.098 100.697C129.747 102.38 130.397 104.064 131.019 105.762C131.563 107.257 132.143 108.739 132.709 110.227C133.624 112.63 134.587 115.02 135.502 117.416C136.096 118.953 136.648 120.505 137.235 122.042C137.821 123.579 138.52 125.123 139.051 126.702C139.581 128.281 140.231 129.657 140.734 131.167C141.237 132.676 141.209 132.648 139.595 132.648L112.14 132.704C111.658 132.704 111.197 132.878 111.63 132.005C113.027 129.159 114.363 126.28 115.639 123.369C116.659 121.001 117.958 118.772 118.957 116.382C119.955 113.993 121.136 111.715 122.183 109.395C123.231 107.076 124.411 104.756 125.431 102.408C125.99 101.123 126.632 99.8792 127.156 98.5866C127.323 98.186 127.567 97.8226 127.876 97.5176Z" fill="#006784"/>
<path d="M134.434 250.966H121.541C121.416 250.902 121.281 250.86 121.143 250.84C119.529 250.792 117.923 250.631 116.309 250.491C110.591 249.994 104.92 249.06 99.3444 247.696C73.3627 241.315 51.6624 227.963 34.2434 207.64C25.8564 197.849 19.0957 186.773 14.2194 174.837C8.66141 161.383 5.58523 147.033 5.13975 132.482C5.16764 132.204 5.11929 131.924 5 131.672V124.447C5.12724 124.165 5.17325 123.853 5.13275 123.546C5.13275 120.975 5.39813 118.424 5.63559 115.86C6.1266 110.516 6.99717 105.213 8.24074 99.9929C13.1655 78.8363 23.6355 59.3741 38.5738 43.6085C45.6875 36.0275 53.7487 29.3958 62.558 23.8774C79.3923 13.2365 98.5766 6.88421 118.433 5.37603C123.272 4.98121 128.131 4.89719 132.981 5.1245C138.354 5.36533 143.706 5.93231 149.01 6.82232C160.239 8.7227 171.139 12.214 181.382 17.1909C198.263 25.2927 213.05 37.1777 224.595 51.9229C238.312 69.1928 247.054 89.8824 249.878 111.759C250.748 118.242 251.093 124.784 250.912 131.322C250.748 137.214 250.176 143.088 249.2 148.901C247.457 159.199 244.381 169.225 240.051 178.728C232.558 195.3 221.477 209.999 207.609 221.761C197.278 230.59 185.543 237.628 172.89 242.582C161.593 247.037 149.692 249.767 137.584 250.68C136.526 250.649 135.469 250.745 134.434 250.966Z" stroke="white" stroke-width="10"/>
</svg>
