<svg id="Layer_1" data-name="Layer 1" xmlns="http://www.w3.org/2000/svg" viewBox="0 0 512 512"><rect width="512" height="512" style="fill:none"/><polygon points="191.21 199.27 60.46 68.52 191.21 68.52 191.21 199.27" style="fill:#fecc00"/><polygon points="321.96 199.27 191.21 68.52 321.96 68.52 321.96 199.27" style="fill:#fecc00"/><polygon points="451.54 199.27 320.79 68.52 451.54 68.52 451.54 199.27" style="fill:#fecc00"/><polygon points="191.21 330.02 60.46 199.27 191.21 199.27 191.21 330.02" style="fill:#fecc00"/><polygon points="321.96 330.02 191.21 199.27 321.96 199.27 321.96 330.02" style="fill:#fecc00"/><polygon points="451.54 330.02 320.79 199.27 451.54 199.27 451.54 330.02" style="fill:#fecc00"/><polygon points="191.21 460.78 60.46 330.02 191.21 330.02 191.21 460.78" style="fill:#fecc00"/><polygon points="321.96 460.78 191.21 330.02 321.96 330.02 321.96 460.78" style="fill:#fecc00"/><polygon points="451.54 460.78 320.79 330.02 451.54 330.02 451.54 460.78" style="fill:#fecc00"/></svg>